M48
; DRILL file {KiCad (6.0.6)} date Fri Jul 22 19:48:43 2022
; FORMAT={-:-/ absolute / inch / decimal}
; #@! TF.CreationDate,2022-07-22T19:48:43-06:00
; #@! TF.GenerationSoftware,Kicad,Pcbnew,(6.0.6)
; #@! TF.FileFunction,Plated,1,2,PTH
FMAT,2
INCH
; #@! TA.AperFunction,Plated,PTH,ViaDrill
T1C0.0157
; #@! TA.AperFunction,Plated,PTH,ComponentDrill
T2C0.0236
; #@! TA.AperFunction,Plated,PTH,ComponentDrill
T3C0.0394
; #@! TA.AperFunction,Plated,PTH,ComponentDrill
T4C0.0591
%
G90
G05
T1
X5.02Y-3.65
X5.0436Y-3.616
X5.0722Y-3.5827
X5.1008Y-3.55
X5.1562Y-4.4062
X5.2006Y-3.3194
X5.2812Y-3.875
X5.495Y-3.475
X5.5312Y-3.7812
X5.625Y-4.5312
X5.6483Y-3.8783
X5.6562Y-3.0
X5.6854Y-3.305
X5.7188Y-3.7501
X5.74Y-3.365
X5.7812Y-3.0625
X5.8438Y-3.9
X5.89Y-3.8737
X5.9062Y-3.0
X5.95Y-3.53
X6.02Y-3.17
X6.215Y-4.0
X6.215Y-4.375
X6.3315Y-3.3015
X6.875Y-3.1875
X6.915Y-3.89
T3
X6.0562Y-3.6062
X6.0562Y-3.7062
X6.1562Y-3.6062
X6.1562Y-3.7062
X6.2562Y-3.6062
X6.2562Y-3.7062
T4
X6.475Y-3.4
X6.475Y-4.15
X6.725Y-3.3
X6.725Y-4.05
X7.225Y-3.4
X7.225Y-4.15
X7.475Y-3.3
X7.475Y-4.05
T2
G00X5.6112Y-3.0038
M15
G01X5.6112Y-3.0274
M16
G05
G00X5.6112Y-3.1585
M15
G01X5.6112Y-3.2018
M16
G05
G00X5.9513Y-3.0038
M15
G01X5.9513Y-3.0274
M16
G05
G00X5.9513Y-3.1585
M15
G01X5.9513Y-3.2018
M16
G05
T0
M30
