%TF.GenerationSoftware,KiCad,Pcbnew,(6.0.6)*%
%TF.CreationDate,2022-07-22T19:48:41-06:00*%
%TF.ProjectId,macro1,6d616372-6f31-42e6-9b69-6361645f7063,rev?*%
%TF.SameCoordinates,Original*%
%TF.FileFunction,Copper,L1,Top*%
%TF.FilePolarity,Positive*%
%FSLAX46Y46*%
G04 Gerber Fmt 4.6, Leading zero omitted, Abs format (unit mm)*
G04 Created by KiCad (PCBNEW (6.0.6)) date 2022-07-22 19:48:41*
%MOMM*%
%LPD*%
G01*
G04 APERTURE LIST*
%TA.AperFunction,ComponentPad*%
%ADD10C,2.200000*%
%TD*%
%TA.AperFunction,ComponentPad*%
%ADD11C,1.700000*%
%TD*%
%TA.AperFunction,ComponentPad*%
%ADD12R,1.700000X1.700000*%
%TD*%
%TA.AperFunction,ComponentPad*%
%ADD13O,1.000000X1.600000*%
%TD*%
%TA.AperFunction,ComponentPad*%
%ADD14O,1.000000X2.100000*%
%TD*%
%TA.AperFunction,ViaPad*%
%ADD15C,0.800000*%
%TD*%
%TA.AperFunction,Conductor*%
%ADD16C,0.381000*%
%TD*%
%TA.AperFunction,Conductor*%
%ADD17C,0.254000*%
%TD*%
G04 APERTURE END LIST*
D10*
%TO.P,SW1,1,1*%
%TO.N,Net-(D1-Pad2)*%
X170815000Y-83820000D03*
%TO.P,SW1,2,2*%
%TO.N,COL0*%
X164465000Y-86360000D03*
%TD*%
%TO.P,SW4,1,1*%
%TO.N,Net-(D4-Pad2)*%
X189865000Y-102870000D03*
%TO.P,SW4,2,2*%
%TO.N,COL1*%
X183515000Y-105410000D03*
%TD*%
%TO.P,SW2,1,1*%
%TO.N,Net-(D2-Pad2)*%
X189865000Y-83820000D03*
%TO.P,SW2,2,2*%
%TO.N,COL1*%
X183515000Y-86360000D03*
%TD*%
%TO.P,SW3,1,1*%
%TO.N,Net-(D3-Pad2)*%
X170815000Y-102870000D03*
%TO.P,SW3,2,2*%
%TO.N,COL0*%
X164465000Y-105410000D03*
%TD*%
D11*
%TO.P,J1,1,MISO*%
%TO.N,MISO*%
X158908750Y-94138750D03*
%TO.P,J1,2,VCC*%
%TO.N,+5V*%
X158908750Y-91598750D03*
%TO.P,J1,3,SCK*%
%TO.N,SCK*%
X156368750Y-94138750D03*
%TO.P,J1,4,MOSI*%
%TO.N,MOSI*%
X156368750Y-91598750D03*
%TO.P,J1,5,~{RST}*%
%TO.N,RESET*%
X153828750Y-94138750D03*
D12*
%TO.P,J1,6,GND*%
%TO.N,GND*%
X153828750Y-91598750D03*
%TD*%
D13*
%TO.P,USB1,13,SHIELD*%
%TO.N,Earth*%
X151163750Y-76596250D03*
X142523750Y-76596250D03*
D14*
X151163750Y-80776250D03*
X142523750Y-80776250D03*
%TD*%
D15*
%TO.N,GND*%
X139573000Y-88265000D03*
X145258747Y-95252497D03*
X140493750Y-96043750D03*
X157861000Y-111125000D03*
X157861000Y-101600000D03*
%TO.N,+5V*%
X130968750Y-111918750D03*
X142875000Y-115093750D03*
X148431250Y-99060000D03*
X134143750Y-98425000D03*
X143466478Y-98508478D03*
%TO.N,ROW0*%
X127508000Y-92710000D03*
X174625000Y-80962500D03*
%TO.N,ROW1*%
X175641000Y-98806000D03*
X128107500Y-91846412D03*
%TO.N,VCC*%
X145796000Y-85471000D03*
X144408750Y-83947000D03*
%TO.N,COL0*%
X128834000Y-91000996D03*
%TO.N,COL1*%
X160820345Y-83857500D03*
X129560500Y-90170000D03*
%TO.N,RESET*%
X149606000Y-98393026D03*
X151130000Y-89662000D03*
X132096500Y-84311500D03*
%TO.N,Earth*%
X143668750Y-76200000D03*
X150018750Y-76200000D03*
X152908000Y-80518000D03*
X146843750Y-77787500D03*
%TD*%
D16*
%TO.N,GND*%
X144467494Y-96043750D02*
X145258747Y-95252497D01*
X140493750Y-89185750D02*
X139573000Y-88265000D01*
X140493750Y-96043750D02*
X144467494Y-96043750D01*
X140493750Y-96043750D02*
X140493750Y-89185750D01*
%TO.N,+5V*%
X130968750Y-111918750D02*
X130968750Y-99218750D01*
X131762500Y-115093750D02*
X142875000Y-115093750D01*
X130968750Y-111918750D02*
X130968750Y-114300000D01*
X130968750Y-114300000D02*
X131762500Y-115093750D01*
X148431250Y-94279544D02*
X148431250Y-99060000D01*
X134143750Y-98425000D02*
X147796250Y-98425000D01*
X157668250Y-90358250D02*
X152352544Y-90358250D01*
X130968750Y-99218750D02*
X131762500Y-98425000D01*
X147796250Y-98425000D02*
X148431250Y-99060000D01*
X152352544Y-90358250D02*
X148431250Y-94279544D01*
X131762500Y-98425000D02*
X134143750Y-98425000D01*
X158908750Y-91598750D02*
X157668250Y-90358250D01*
D17*
%TO.N,ROW0*%
X128397000Y-83947000D02*
X127381000Y-84963000D01*
X130190750Y-82153250D02*
X128397000Y-83947000D01*
X127381000Y-84963000D02*
X127381000Y-92710000D01*
X173434250Y-82153250D02*
X130190750Y-82153250D01*
X174625000Y-80962500D02*
X173434250Y-82153250D01*
X127381000Y-92710000D02*
X127508000Y-92710000D01*
%TO.N,ROW1*%
X170180000Y-85344000D02*
X172593000Y-85344000D01*
X130309052Y-82677000D02*
X167513000Y-82677000D01*
X175641000Y-88392000D02*
X175641000Y-98806000D01*
X128107500Y-91846412D02*
X128107500Y-84878552D01*
X172593000Y-85344000D02*
X175641000Y-88392000D01*
X128107500Y-84878552D02*
X130309052Y-82677000D01*
X167513000Y-82677000D02*
X170180000Y-85344000D01*
D16*
%TO.N,VCC*%
X144408750Y-84083750D02*
X145796000Y-85471000D01*
X144408750Y-83947000D02*
X144408750Y-84083750D01*
D17*
%TO.N,COL0*%
X164465000Y-86360000D02*
X165735000Y-87630000D01*
X128834000Y-91000996D02*
X128834000Y-84794104D01*
X128834000Y-84794104D02*
X130497104Y-83131000D01*
X165735000Y-87630000D02*
X165735000Y-104140000D01*
X165735000Y-104140000D02*
X164465000Y-105410000D01*
X161236000Y-83131000D02*
X164465000Y-86360000D01*
X130497104Y-83131000D02*
X161236000Y-83131000D01*
%TO.N,COL1*%
X141059000Y-83585000D02*
X143672000Y-86198000D01*
X158479845Y-86198000D02*
X160820345Y-83857500D01*
X184785000Y-87630000D02*
X184785000Y-104140000D01*
X183515000Y-86360000D02*
X184785000Y-87630000D01*
X130685156Y-83585000D02*
X141059000Y-83585000D01*
X129560500Y-84709656D02*
X130685156Y-83585000D01*
X143672000Y-86198000D02*
X158479845Y-86198000D01*
X129560500Y-90170000D02*
X129560500Y-84709656D01*
X184785000Y-104140000D02*
X183515000Y-105410000D01*
%TO.N,RESET*%
X135763000Y-84311500D02*
X132096500Y-84311500D01*
X148120000Y-86652000D02*
X143327000Y-86652000D01*
X140986500Y-84311500D02*
X135763000Y-84311500D01*
X143327000Y-86652000D02*
X140986500Y-84311500D01*
X151542974Y-98393026D02*
X149606000Y-98393026D01*
X153828750Y-96107250D02*
X151542974Y-98393026D01*
X151130000Y-89662000D02*
X148120000Y-86652000D01*
X153828750Y-94138750D02*
X153828750Y-96107250D01*
%TD*%
%TA.AperFunction,Conductor*%
%TO.N,Earth*%
G36*
X150123187Y-75934752D02*
G01*
X150169680Y-75988408D01*
X150179784Y-76058682D01*
X150175167Y-76078850D01*
X150174870Y-76079786D01*
X150172321Y-76091780D01*
X150156143Y-76236011D01*
X150155750Y-76243035D01*
X150155750Y-76324135D01*
X150160225Y-76339374D01*
X150161615Y-76340579D01*
X150169298Y-76342250D01*
X151291750Y-76342250D01*
X151359871Y-76362252D01*
X151406364Y-76415908D01*
X151417750Y-76468250D01*
X151417750Y-77854174D01*
X151421723Y-77867705D01*
X151429518Y-77868825D01*
X151537271Y-77837112D01*
X151548639Y-77832519D01*
X151707125Y-77749665D01*
X151776761Y-77735831D01*
X151842821Y-77761841D01*
X151884333Y-77819437D01*
X151891500Y-77861327D01*
X151891500Y-78528021D01*
X151889755Y-78548918D01*
X151886423Y-78568730D01*
X151886271Y-78581282D01*
X151886959Y-78586087D01*
X151886960Y-78586097D01*
X151888371Y-78595942D01*
X151889255Y-78603907D01*
X151903566Y-78785620D01*
X151904724Y-78790441D01*
X151941987Y-78945622D01*
X151951424Y-78984924D01*
X152029869Y-79174289D01*
X152032454Y-79178508D01*
X152032456Y-79178511D01*
X152079205Y-79254795D01*
X152136969Y-79349053D01*
X152270087Y-79504913D01*
X152425947Y-79638031D01*
X152430170Y-79640619D01*
X152596489Y-79742544D01*
X152596492Y-79742546D01*
X152600711Y-79745131D01*
X152605283Y-79747025D01*
X152605285Y-79747026D01*
X152677844Y-79777084D01*
X152790076Y-79823576D01*
X152794893Y-79824733D01*
X152794897Y-79824734D01*
X152868256Y-79842349D01*
X152989380Y-79871434D01*
X153068756Y-79877685D01*
X153152885Y-79884311D01*
X153163905Y-79885670D01*
X153176364Y-79887767D01*
X153176367Y-79887767D01*
X153181166Y-79888575D01*
X153186024Y-79888635D01*
X153186028Y-79888635D01*
X153187351Y-79888651D01*
X153193718Y-79888729D01*
X153221368Y-79884771D01*
X153239222Y-79883500D01*
X155449000Y-79883500D01*
X155517121Y-79903502D01*
X155563614Y-79957158D01*
X155575000Y-80009500D01*
X155575000Y-81391750D01*
X155554998Y-81459871D01*
X155501342Y-81506364D01*
X155449000Y-81517750D01*
X152297260Y-81517750D01*
X152229139Y-81497748D01*
X152182646Y-81444092D01*
X152171457Y-81384714D01*
X152171750Y-81379475D01*
X152171750Y-81048365D01*
X152167275Y-81033126D01*
X152165885Y-81031921D01*
X152158202Y-81030250D01*
X151035750Y-81030250D01*
X150967629Y-81010248D01*
X150921136Y-80956592D01*
X150909750Y-80904250D01*
X150909750Y-80504135D01*
X151417750Y-80504135D01*
X151422225Y-80519374D01*
X151423615Y-80520579D01*
X151431298Y-80522250D01*
X152153635Y-80522250D01*
X152168874Y-80517775D01*
X152170079Y-80516385D01*
X152171750Y-80508702D01*
X152171750Y-80179593D01*
X152171449Y-80173445D01*
X152157938Y-80035647D01*
X152155555Y-80023612D01*
X152101983Y-79846174D01*
X152097309Y-79834834D01*
X152010290Y-79671173D01*
X152003501Y-79660956D01*
X151886353Y-79517317D01*
X151877709Y-79508613D01*
X151734894Y-79390466D01*
X151724723Y-79383606D01*
X151561674Y-79295446D01*
X151550369Y-79290694D01*
X151435058Y-79255000D01*
X151420955Y-79254794D01*
X151417750Y-79261549D01*
X151417750Y-80504135D01*
X150909750Y-80504135D01*
X150909750Y-79268326D01*
X150905777Y-79254795D01*
X150897982Y-79253675D01*
X150790229Y-79285388D01*
X150778861Y-79289981D01*
X150614596Y-79375857D01*
X150604335Y-79382571D01*
X150459877Y-79498718D01*
X150451118Y-79507296D01*
X150331972Y-79649289D01*
X150325048Y-79659402D01*
X150273885Y-79752466D01*
X150223539Y-79802525D01*
X150154122Y-79817418D01*
X150086768Y-79791729D01*
X150023983Y-79743552D01*
X149883986Y-79685563D01*
X149771470Y-79670750D01*
X149696030Y-79670750D01*
X149583514Y-79685563D01*
X149443517Y-79743552D01*
X149323299Y-79835799D01*
X149231052Y-79956017D01*
X149173063Y-80096014D01*
X149153284Y-80246250D01*
X149173063Y-80396486D01*
X149231052Y-80536483D01*
X149323299Y-80656701D01*
X149443517Y-80748948D01*
X149583514Y-80806937D01*
X149696030Y-80821750D01*
X149771470Y-80821750D01*
X149883986Y-80806937D01*
X149923132Y-80790722D01*
X149981532Y-80766532D01*
X150052122Y-80758943D01*
X150115609Y-80790722D01*
X150151836Y-80851780D01*
X150155750Y-80882941D01*
X150155750Y-81372908D01*
X150156051Y-81379064D01*
X150156088Y-81379442D01*
X150156073Y-81379520D01*
X150156201Y-81382135D01*
X150155570Y-81382166D01*
X150142836Y-81449191D01*
X150093979Y-81500703D01*
X150030691Y-81517750D01*
X143657260Y-81517750D01*
X143589139Y-81497748D01*
X143542646Y-81444092D01*
X143531457Y-81384714D01*
X143531750Y-81379475D01*
X143531750Y-80882941D01*
X143551752Y-80814820D01*
X143605408Y-80768327D01*
X143675682Y-80758223D01*
X143705968Y-80766532D01*
X143764368Y-80790722D01*
X143803514Y-80806937D01*
X143916030Y-80821750D01*
X143991470Y-80821750D01*
X144103986Y-80806937D01*
X144243983Y-80748948D01*
X144364201Y-80656701D01*
X144456448Y-80536483D01*
X144514437Y-80396486D01*
X144534216Y-80246250D01*
X144514437Y-80096014D01*
X144456448Y-79956017D01*
X144364201Y-79835799D01*
X144243983Y-79743552D01*
X144103986Y-79685563D01*
X143991470Y-79670750D01*
X143916030Y-79670750D01*
X143803514Y-79685563D01*
X143663517Y-79743552D01*
X143600733Y-79791728D01*
X143600672Y-79791775D01*
X143534452Y-79817376D01*
X143464903Y-79803111D01*
X143412716Y-79750966D01*
X143370290Y-79671173D01*
X143363501Y-79660956D01*
X143246353Y-79517317D01*
X143237709Y-79508613D01*
X143094894Y-79390466D01*
X143084723Y-79383606D01*
X142921674Y-79295446D01*
X142910369Y-79290694D01*
X142795058Y-79255000D01*
X142780955Y-79254794D01*
X142777750Y-79261549D01*
X142777750Y-80904250D01*
X142757748Y-80972371D01*
X142704092Y-81018864D01*
X142651750Y-81030250D01*
X141533865Y-81030250D01*
X141518626Y-81034725D01*
X141517421Y-81036115D01*
X141515750Y-81043798D01*
X141515750Y-81372908D01*
X141516051Y-81379064D01*
X141516088Y-81379442D01*
X141516073Y-81379520D01*
X141516201Y-81382135D01*
X141515570Y-81382166D01*
X141502836Y-81449191D01*
X141453979Y-81500703D01*
X141390691Y-81517750D01*
X138238500Y-81517750D01*
X138170379Y-81497748D01*
X138123886Y-81444092D01*
X138112500Y-81391750D01*
X138112500Y-80504135D01*
X141515750Y-80504135D01*
X141520225Y-80519374D01*
X141521615Y-80520579D01*
X141529298Y-80522250D01*
X142251635Y-80522250D01*
X142266874Y-80517775D01*
X142268079Y-80516385D01*
X142269750Y-80508702D01*
X142269750Y-79268326D01*
X142265777Y-79254795D01*
X142257982Y-79253675D01*
X142150229Y-79285388D01*
X142138861Y-79289981D01*
X141974596Y-79375857D01*
X141964335Y-79382571D01*
X141819877Y-79498718D01*
X141811118Y-79507296D01*
X141691972Y-79649289D01*
X141685042Y-79659409D01*
X141595748Y-79821835D01*
X141590916Y-79833108D01*
X141534870Y-80009788D01*
X141532320Y-80021782D01*
X141516143Y-80166011D01*
X141515750Y-80173035D01*
X141515750Y-80504135D01*
X138112500Y-80504135D01*
X138112500Y-80009500D01*
X138132502Y-79941379D01*
X138186158Y-79894886D01*
X138238500Y-79883500D01*
X140440521Y-79883500D01*
X140461418Y-79885245D01*
X140476429Y-79887770D01*
X140476434Y-79887770D01*
X140481230Y-79888577D01*
X140486095Y-79888636D01*
X140486096Y-79888636D01*
X140487046Y-79888647D01*
X140493782Y-79888729D01*
X140498587Y-79888041D01*
X140498597Y-79888040D01*
X140508442Y-79886629D01*
X140516407Y-79885745D01*
X140698120Y-79871434D01*
X140819244Y-79842349D01*
X140892603Y-79824734D01*
X140892607Y-79824733D01*
X140897424Y-79823576D01*
X141009656Y-79777084D01*
X141082215Y-79747026D01*
X141082217Y-79747025D01*
X141086789Y-79745131D01*
X141091008Y-79742546D01*
X141091011Y-79742544D01*
X141257330Y-79640619D01*
X141261553Y-79638031D01*
X141417413Y-79504913D01*
X141550531Y-79349053D01*
X141608295Y-79254795D01*
X141655044Y-79178511D01*
X141655046Y-79178508D01*
X141657631Y-79174289D01*
X141736076Y-78984924D01*
X141745514Y-78945622D01*
X141782776Y-78790441D01*
X141783934Y-78785620D01*
X141796811Y-78622115D01*
X141798170Y-78611095D01*
X141800267Y-78598636D01*
X141800267Y-78598633D01*
X141801075Y-78593834D01*
X141801229Y-78581282D01*
X141797271Y-78553632D01*
X141796000Y-78535778D01*
X141796000Y-77860086D01*
X141816002Y-77791965D01*
X141869658Y-77745472D01*
X141939932Y-77735368D01*
X141981928Y-77749250D01*
X142125821Y-77827052D01*
X142137131Y-77831806D01*
X142252442Y-77867500D01*
X142266545Y-77867706D01*
X142269750Y-77860951D01*
X142269750Y-77854174D01*
X142777750Y-77854174D01*
X142781723Y-77867705D01*
X142789518Y-77868825D01*
X142897271Y-77837112D01*
X142908639Y-77832519D01*
X143072904Y-77746643D01*
X143083165Y-77739929D01*
X143227623Y-77623782D01*
X143236382Y-77615204D01*
X143355528Y-77473211D01*
X143362458Y-77463091D01*
X143451752Y-77300665D01*
X143456584Y-77289392D01*
X143512630Y-77112712D01*
X143515180Y-77100718D01*
X143531357Y-76956489D01*
X143531750Y-76949465D01*
X143531750Y-76942907D01*
X150155750Y-76942907D01*
X150156051Y-76949055D01*
X150169562Y-77086853D01*
X150171945Y-77098888D01*
X150225517Y-77276326D01*
X150230191Y-77287666D01*
X150317210Y-77451327D01*
X150323999Y-77461544D01*
X150441147Y-77605183D01*
X150449791Y-77613887D01*
X150592606Y-77732034D01*
X150602777Y-77738894D01*
X150765826Y-77827054D01*
X150777131Y-77831806D01*
X150892442Y-77867500D01*
X150906545Y-77867706D01*
X150909750Y-77860951D01*
X150909750Y-76868365D01*
X150905275Y-76853126D01*
X150903885Y-76851921D01*
X150896202Y-76850250D01*
X150173865Y-76850250D01*
X150158626Y-76854725D01*
X150157421Y-76856115D01*
X150155750Y-76863798D01*
X150155750Y-76942907D01*
X143531750Y-76942907D01*
X143531750Y-76868365D01*
X143527275Y-76853126D01*
X143525885Y-76851921D01*
X143518202Y-76850250D01*
X142795865Y-76850250D01*
X142780626Y-76854725D01*
X142779421Y-76856115D01*
X142777750Y-76863798D01*
X142777750Y-77854174D01*
X142269750Y-77854174D01*
X142269750Y-76468250D01*
X142289752Y-76400129D01*
X142343408Y-76353636D01*
X142395750Y-76342250D01*
X143513635Y-76342250D01*
X143528874Y-76337775D01*
X143530079Y-76336385D01*
X143531750Y-76328702D01*
X143531750Y-76249593D01*
X143531449Y-76243445D01*
X143517938Y-76105647D01*
X143515556Y-76093619D01*
X143510590Y-76077170D01*
X143510049Y-76006175D01*
X143547975Y-75946158D01*
X143612329Y-75916173D01*
X143631212Y-75914750D01*
X150055066Y-75914750D01*
X150123187Y-75934752D01*
G37*
%TD.AperFunction*%
%TD*%
%TA.AperFunction,Conductor*%
%TO.N,GND*%
G36*
X159962121Y-99715002D02*
G01*
X160008614Y-99768658D01*
X160020000Y-99821000D01*
X160020000Y-112904000D01*
X159999998Y-112972121D01*
X159946342Y-113018614D01*
X159894000Y-113030000D01*
X148081000Y-113030000D01*
X148012879Y-113009998D01*
X147966386Y-112956342D01*
X147955000Y-112904000D01*
X147955000Y-106807000D01*
X146303000Y-106807000D01*
X146234879Y-106786998D01*
X146188386Y-106733342D01*
X146177000Y-106681000D01*
X146177000Y-105282000D01*
X146197002Y-105213879D01*
X146250658Y-105167386D01*
X146303000Y-105156000D01*
X147955000Y-105156000D01*
X147955000Y-99821000D01*
X147975002Y-99752879D01*
X148028658Y-99706386D01*
X148081000Y-99695000D01*
X159894000Y-99695000D01*
X159962121Y-99715002D01*
G37*
%TD.AperFunction*%
%TD*%
M02*
