%TF.GenerationSoftware,KiCad,Pcbnew,(6.0.6)*%
%TF.CreationDate,2022-07-22T19:48:42-06:00*%
%TF.ProjectId,macro1,6d616372-6f31-42e6-9b69-6361645f7063,rev?*%
%TF.SameCoordinates,Original*%
%TF.FileFunction,Soldermask,Bot*%
%TF.FilePolarity,Negative*%
%FSLAX46Y46*%
G04 Gerber Fmt 4.6, Leading zero omitted, Abs format (unit mm)*
G04 Created by KiCad (PCBNEW (6.0.6)) date 2022-07-22 19:48:42*
%MOMM*%
%LPD*%
G01*
G04 APERTURE LIST*
G04 Aperture macros list*
%AMRoundRect*
0 Rectangle with rounded corners*
0 $1 Rounding radius*
0 $2 $3 $4 $5 $6 $7 $8 $9 X,Y pos of 4 corners*
0 Add a 4 corners polygon primitive as box body*
4,1,4,$2,$3,$4,$5,$6,$7,$8,$9,$2,$3,0*
0 Add four circle primitives for the rounded corners*
1,1,$1+$1,$2,$3*
1,1,$1+$1,$4,$5*
1,1,$1+$1,$6,$7*
1,1,$1+$1,$8,$9*
0 Add four rect primitives between the rounded corners*
20,1,$1+$1,$2,$3,$4,$5,0*
20,1,$1+$1,$4,$5,$6,$7,0*
20,1,$1+$1,$6,$7,$8,$9,0*
20,1,$1+$1,$8,$9,$2,$3,0*%
%AMRotRect*
0 Rectangle, with rotation*
0 The origin of the aperture is its center*
0 $1 length*
0 $2 width*
0 $3 Rotation angle, in degrees counterclockwise*
0 Add horizontal line*
21,1,$1,$2,0,0,$3*%
G04 Aperture macros list end*
%ADD10C,1.700000*%
%ADD11C,4.000000*%
%ADD12C,2.200000*%
%ADD13RoundRect,0.250000X-0.450000X0.350000X-0.450000X-0.350000X0.450000X-0.350000X0.450000X0.350000X0*%
%ADD14RoundRect,0.250000X-0.337500X-0.475000X0.337500X-0.475000X0.337500X0.475000X-0.337500X0.475000X0*%
%ADD15RoundRect,0.250000X0.450000X-0.350000X0.450000X0.350000X-0.450000X0.350000X-0.450000X-0.350000X0*%
%ADD16RoundRect,0.250000X0.350000X0.450000X-0.350000X0.450000X-0.350000X-0.450000X0.350000X-0.450000X0*%
%ADD17RoundRect,0.250000X-0.325000X-0.450000X0.325000X-0.450000X0.325000X0.450000X-0.325000X0.450000X0*%
%ADD18RoundRect,0.250000X0.475000X-0.337500X0.475000X0.337500X-0.475000X0.337500X-0.475000X-0.337500X0*%
%ADD19R,1.200000X0.900000*%
%ADD20R,1.100000X1.800000*%
%ADD21RoundRect,0.250000X-0.350000X-0.450000X0.350000X-0.450000X0.350000X0.450000X-0.350000X0.450000X0*%
%ADD22RotRect,2.100000X1.800000X135.000000*%
%ADD23RoundRect,0.250001X-0.624999X0.462499X-0.624999X-0.462499X0.624999X-0.462499X0.624999X0.462499X0*%
%ADD24R,0.700000X1.000000*%
%ADD25R,0.700000X0.600000*%
%ADD26R,1.700000X1.700000*%
%ADD27C,0.650000*%
%ADD28R,0.600000X2.450000*%
%ADD29R,0.300000X2.450000*%
%ADD30R,0.550000X1.500000*%
%ADD31R,1.500000X0.550000*%
%ADD32RoundRect,0.250000X-0.475000X0.337500X-0.475000X-0.337500X0.475000X-0.337500X0.475000X0.337500X0*%
G04 APERTURE END LIST*
D10*
%TO.C,SW1*%
X173355000Y-88900000D03*
X163195000Y-88900000D03*
D11*
X168275000Y-88900000D03*
D12*
X170815000Y-83820000D03*
X164465000Y-86360000D03*
%TD*%
D10*
%TO.C,SW4*%
X192405000Y-107950000D03*
X182245000Y-107950000D03*
D11*
X187325000Y-107950000D03*
D12*
X189865000Y-102870000D03*
X183515000Y-105410000D03*
%TD*%
D10*
%TO.C,SW2*%
X192405000Y-88900000D03*
X182245000Y-88900000D03*
D11*
X187325000Y-88900000D03*
D12*
X189865000Y-83820000D03*
X183515000Y-86360000D03*
%TD*%
D10*
%TO.C,SW3*%
X163195000Y-107950000D03*
X173355000Y-107950000D03*
D11*
X168275000Y-107950000D03*
D12*
X170815000Y-102870000D03*
X164465000Y-105410000D03*
%TD*%
D13*
%TO.C,R2*%
X148431250Y-90281250D03*
X148431250Y-92281250D03*
%TD*%
D14*
%TO.C,C4*%
X149775000Y-101600000D03*
X151850000Y-101600000D03*
%TD*%
D15*
%TO.C,R6*%
X129381250Y-85931250D03*
X129381250Y-83931250D03*
%TD*%
D14*
%TO.C,C8*%
X146600000Y-95250000D03*
X148675000Y-95250000D03*
%TD*%
D16*
%TO.C,R5*%
X143081250Y-86518750D03*
X141081250Y-86518750D03*
%TD*%
D14*
%TO.C,C2*%
X144218750Y-115093750D03*
X146293750Y-115093750D03*
%TD*%
D17*
%TO.C,FB1*%
X154550000Y-81756250D03*
X156600000Y-81756250D03*
%TD*%
D18*
%TO.C,C3*%
X132556250Y-111368750D03*
X132556250Y-109293750D03*
%TD*%
D19*
%TO.C,D4*%
X179387500Y-99950000D03*
X179387500Y-103250000D03*
%TD*%
D20*
%TO.C,SW5*%
X133881250Y-81037500D03*
X133881250Y-87237500D03*
X137581250Y-87237500D03*
X137581250Y-81037500D03*
%TD*%
D21*
%TO.C,R4*%
X150606250Y-86518750D03*
X152606250Y-86518750D03*
%TD*%
D19*
%TO.C,D3*%
X176212500Y-99950000D03*
X176212500Y-103250000D03*
%TD*%
D22*
%TO.C,Y1*%
X154993382Y-108200978D03*
X152942772Y-106150368D03*
X154569118Y-104524022D03*
X156619728Y-106574632D03*
%TD*%
D23*
%TO.C,F1*%
X142875000Y-89000000D03*
X142875000Y-91975000D03*
%TD*%
D24*
%TO.C,U2*%
X147843750Y-86562500D03*
D25*
X147843750Y-88262500D03*
X145843750Y-88262500D03*
X145843750Y-86362500D03*
%TD*%
D14*
%TO.C,C6*%
X154537500Y-111125000D03*
X156612500Y-111125000D03*
%TD*%
D21*
%TO.C,R3*%
X136318750Y-115093750D03*
X138318750Y-115093750D03*
%TD*%
D13*
%TO.C,R1*%
X145256250Y-90281250D03*
X145256250Y-92281250D03*
%TD*%
D10*
%TO.C,J1*%
X158908750Y-94138750D03*
X158908750Y-91598750D03*
X156368750Y-94138750D03*
X156368750Y-91598750D03*
X153828750Y-94138750D03*
D26*
X153828750Y-91598750D03*
%TD*%
D14*
%TO.C,C5*%
X137075000Y-96043750D03*
X139150000Y-96043750D03*
%TD*%
D19*
%TO.C,D1*%
X176212500Y-80900000D03*
X176212500Y-84200000D03*
%TD*%
D27*
%TO.C,USB1*%
X143953750Y-80246250D03*
X149733750Y-80246250D03*
D28*
X143618750Y-82191250D03*
X144393750Y-82191250D03*
D29*
X145093750Y-82191250D03*
X145593750Y-82191250D03*
X146093750Y-82191250D03*
X146593750Y-82191250D03*
X147093750Y-82191250D03*
X147593750Y-82191250D03*
X148093750Y-82191250D03*
X148593750Y-82191250D03*
D28*
X149293750Y-82191250D03*
X150068750Y-82191250D03*
%TD*%
D30*
%TO.C,U1*%
X137287500Y-100662500D03*
X138087500Y-100662500D03*
X138887500Y-100662500D03*
X139687500Y-100662500D03*
X140487500Y-100662500D03*
X141287500Y-100662500D03*
X142087500Y-100662500D03*
X142887500Y-100662500D03*
X143687500Y-100662500D03*
X144487500Y-100662500D03*
X145287500Y-100662500D03*
D31*
X146987500Y-102362500D03*
X146987500Y-103162500D03*
X146987500Y-103962500D03*
X146987500Y-104762500D03*
X146987500Y-105562500D03*
X146987500Y-106362500D03*
X146987500Y-107162500D03*
X146987500Y-107962500D03*
X146987500Y-108762500D03*
X146987500Y-109562500D03*
X146987500Y-110362500D03*
D30*
X145287500Y-112062500D03*
X144487500Y-112062500D03*
X143687500Y-112062500D03*
X142887500Y-112062500D03*
X142087500Y-112062500D03*
X141287500Y-112062500D03*
X140487500Y-112062500D03*
X139687500Y-112062500D03*
X138887500Y-112062500D03*
X138087500Y-112062500D03*
X137287500Y-112062500D03*
D31*
X135587500Y-110362500D03*
X135587500Y-109562500D03*
X135587500Y-108762500D03*
X135587500Y-107962500D03*
X135587500Y-107162500D03*
X135587500Y-106362500D03*
X135587500Y-105562500D03*
X135587500Y-104762500D03*
X135587500Y-103962500D03*
X135587500Y-103162500D03*
X135587500Y-102362500D03*
%TD*%
D19*
%TO.C,D2*%
X179387500Y-80900000D03*
X179387500Y-84200000D03*
%TD*%
D32*
%TO.C,C1*%
X132556250Y-101356250D03*
X132556250Y-103431250D03*
%TD*%
D14*
%TO.C,C7*%
X154537500Y-101600000D03*
X156612500Y-101600000D03*
%TD*%
M02*
