M48
INCH,TZ
T1C0.0157
T2C0.0236
T3C0.0394
T4C0.0591
%
G90
G05
T1
X50200Y-36500
X50436Y-36160
X50722Y-35827
X51008Y-35500
X51563Y-44063
X52006Y-33194
X52813Y-38750
X54950Y-34750
X55313Y-37813
X56250Y-45313
X56483Y-38783
X56563Y-30000
X56854Y-33050
X57188Y-37501
X57400Y-33650
X57813Y-30625
X58438Y-39000
X58900Y-38737
X59063Y-30000
X59500Y-35300
X60200Y-31700
X62150Y-40000
X62150Y-43750
X63315Y-33015
X68750Y-31875
X69150Y-38900
T3
X60562Y-36063
X60562Y-37063
X61563Y-36063
X61563Y-37063
X62563Y-36063
X62563Y-37063
T4
X64750Y-34000
X64750Y-41500
X67250Y-33000
X67250Y-40500
X72250Y-34000
X72250Y-41500
X74750Y-33000
X74750Y-40500
T2
G00X56112Y-30038
M15
G01X56112Y-30274
M16
G05
G00X56112Y-31585
M15
G01X56112Y-32018
M16
G05
G00X59513Y-30038
M15
G01X59513Y-30274
M16
G05
G00X59513Y-31585
M15
G01X59513Y-32018
M16
G05
T0
M30
