%TF.GenerationSoftware,KiCad,Pcbnew,(6.0.6)*%
%TF.CreationDate,2022-07-22T19:48:41-06:00*%
%TF.ProjectId,macro1,6d616372-6f31-42e6-9b69-6361645f7063,rev?*%
%TF.SameCoordinates,Original*%
%TF.FileFunction,Legend,Bot*%
%TF.FilePolarity,Positive*%
%FSLAX46Y46*%
G04 Gerber Fmt 4.6, Leading zero omitted, Abs format (unit mm)*
G04 Created by KiCad (PCBNEW (6.0.6)) date 2022-07-22 19:48:41*
%MOMM*%
%LPD*%
G01*
G04 APERTURE LIST*
G04 Aperture macros list*
%AMRoundRect*
0 Rectangle with rounded corners*
0 $1 Rounding radius*
0 $2 $3 $4 $5 $6 $7 $8 $9 X,Y pos of 4 corners*
0 Add a 4 corners polygon primitive as box body*
4,1,4,$2,$3,$4,$5,$6,$7,$8,$9,$2,$3,0*
0 Add four circle primitives for the rounded corners*
1,1,$1+$1,$2,$3*
1,1,$1+$1,$4,$5*
1,1,$1+$1,$6,$7*
1,1,$1+$1,$8,$9*
0 Add four rect primitives between the rounded corners*
20,1,$1+$1,$2,$3,$4,$5,0*
20,1,$1+$1,$4,$5,$6,$7,0*
20,1,$1+$1,$6,$7,$8,$9,0*
20,1,$1+$1,$8,$9,$2,$3,0*%
%AMRotRect*
0 Rectangle, with rotation*
0 The origin of the aperture is its center*
0 $1 length*
0 $2 width*
0 $3 Rotation angle, in degrees counterclockwise*
0 Add horizontal line*
21,1,$1,$2,0,0,$3*%
G04 Aperture macros list end*
%ADD10C,0.150000*%
%ADD11C,0.120000*%
%ADD12C,0.250000*%
%ADD13C,1.700000*%
%ADD14C,4.000000*%
%ADD15C,2.200000*%
%ADD16RoundRect,0.250000X-0.450000X0.350000X-0.450000X-0.350000X0.450000X-0.350000X0.450000X0.350000X0*%
%ADD17RoundRect,0.250000X-0.337500X-0.475000X0.337500X-0.475000X0.337500X0.475000X-0.337500X0.475000X0*%
%ADD18RoundRect,0.250000X0.450000X-0.350000X0.450000X0.350000X-0.450000X0.350000X-0.450000X-0.350000X0*%
%ADD19RoundRect,0.250000X0.350000X0.450000X-0.350000X0.450000X-0.350000X-0.450000X0.350000X-0.450000X0*%
%ADD20RoundRect,0.250000X-0.325000X-0.450000X0.325000X-0.450000X0.325000X0.450000X-0.325000X0.450000X0*%
%ADD21RoundRect,0.250000X0.475000X-0.337500X0.475000X0.337500X-0.475000X0.337500X-0.475000X-0.337500X0*%
%ADD22R,1.200000X0.900000*%
%ADD23R,1.100000X1.800000*%
%ADD24RoundRect,0.250000X-0.350000X-0.450000X0.350000X-0.450000X0.350000X0.450000X-0.350000X0.450000X0*%
%ADD25RotRect,2.100000X1.800000X135.000000*%
%ADD26RoundRect,0.250001X-0.624999X0.462499X-0.624999X-0.462499X0.624999X-0.462499X0.624999X0.462499X0*%
%ADD27R,0.700000X1.000000*%
%ADD28R,0.700000X0.600000*%
%ADD29R,1.700000X1.700000*%
%ADD30C,0.650000*%
%ADD31R,0.600000X2.450000*%
%ADD32R,0.300000X2.450000*%
%ADD33R,0.550000X1.500000*%
%ADD34R,1.500000X0.550000*%
%ADD35RoundRect,0.250000X-0.475000X0.337500X-0.475000X-0.337500X0.475000X-0.337500X0.475000X0.337500X0*%
G04 APERTURE END LIST*
D10*
%TO.C,R2*%
X148597916Y-94114880D02*
X148931250Y-93638690D01*
X149169345Y-94114880D02*
X149169345Y-93114880D01*
X148788392Y-93114880D01*
X148693154Y-93162500D01*
X148645535Y-93210119D01*
X148597916Y-93305357D01*
X148597916Y-93448214D01*
X148645535Y-93543452D01*
X148693154Y-93591071D01*
X148788392Y-93638690D01*
X149169345Y-93638690D01*
X148216964Y-93210119D02*
X148169345Y-93162500D01*
X148074107Y-93114880D01*
X147836011Y-93114880D01*
X147740773Y-93162500D01*
X147693154Y-93210119D01*
X147645535Y-93305357D01*
X147645535Y-93400595D01*
X147693154Y-93543452D01*
X148264583Y-94114880D01*
X147645535Y-94114880D01*
%TO.C,C4*%
X150979166Y-100369642D02*
X151026785Y-100417261D01*
X151169642Y-100464880D01*
X151264880Y-100464880D01*
X151407738Y-100417261D01*
X151502976Y-100322023D01*
X151550595Y-100226785D01*
X151598214Y-100036309D01*
X151598214Y-99893452D01*
X151550595Y-99702976D01*
X151502976Y-99607738D01*
X151407738Y-99512500D01*
X151264880Y-99464880D01*
X151169642Y-99464880D01*
X151026785Y-99512500D01*
X150979166Y-99560119D01*
X150122023Y-99798214D02*
X150122023Y-100464880D01*
X150360119Y-99417261D02*
X150598214Y-100131547D01*
X149979166Y-100131547D01*
%TO.C,R6*%
X131483630Y-84764583D02*
X131007440Y-84431250D01*
X131483630Y-84193154D02*
X130483630Y-84193154D01*
X130483630Y-84574107D01*
X130531250Y-84669345D01*
X130578869Y-84716964D01*
X130674107Y-84764583D01*
X130816964Y-84764583D01*
X130912202Y-84716964D01*
X130959821Y-84669345D01*
X131007440Y-84574107D01*
X131007440Y-84193154D01*
X130483630Y-85621726D02*
X130483630Y-85431250D01*
X130531250Y-85336011D01*
X130578869Y-85288392D01*
X130721726Y-85193154D01*
X130912202Y-85145535D01*
X131293154Y-85145535D01*
X131388392Y-85193154D01*
X131436011Y-85240773D01*
X131483630Y-85336011D01*
X131483630Y-85526488D01*
X131436011Y-85621726D01*
X131388392Y-85669345D01*
X131293154Y-85716964D01*
X131055059Y-85716964D01*
X130959821Y-85669345D01*
X130912202Y-85621726D01*
X130864583Y-85526488D01*
X130864583Y-85336011D01*
X130912202Y-85240773D01*
X130959821Y-85193154D01*
X131055059Y-85145535D01*
%TO.C,C8*%
X150375892Y-95083333D02*
X150423511Y-95035714D01*
X150471130Y-94892857D01*
X150471130Y-94797619D01*
X150423511Y-94654761D01*
X150328273Y-94559523D01*
X150233035Y-94511904D01*
X150042559Y-94464285D01*
X149899702Y-94464285D01*
X149709226Y-94511904D01*
X149613988Y-94559523D01*
X149518750Y-94654761D01*
X149471130Y-94797619D01*
X149471130Y-94892857D01*
X149518750Y-95035714D01*
X149566369Y-95083333D01*
X149899702Y-95654761D02*
X149852083Y-95559523D01*
X149804464Y-95511904D01*
X149709226Y-95464285D01*
X149661607Y-95464285D01*
X149566369Y-95511904D01*
X149518750Y-95559523D01*
X149471130Y-95654761D01*
X149471130Y-95845238D01*
X149518750Y-95940476D01*
X149566369Y-95988095D01*
X149661607Y-96035714D01*
X149709226Y-96035714D01*
X149804464Y-95988095D01*
X149852083Y-95940476D01*
X149899702Y-95845238D01*
X149899702Y-95654761D01*
X149947321Y-95559523D01*
X149994940Y-95511904D01*
X150090178Y-95464285D01*
X150280654Y-95464285D01*
X150375892Y-95511904D01*
X150423511Y-95559523D01*
X150471130Y-95654761D01*
X150471130Y-95845238D01*
X150423511Y-95940476D01*
X150375892Y-95988095D01*
X150280654Y-96035714D01*
X150090178Y-96035714D01*
X149994940Y-95988095D01*
X149947321Y-95940476D01*
X149899702Y-95845238D01*
%TO.C,R5*%
X142247916Y-85321130D02*
X142581250Y-84844940D01*
X142819345Y-85321130D02*
X142819345Y-84321130D01*
X142438392Y-84321130D01*
X142343154Y-84368750D01*
X142295535Y-84416369D01*
X142247916Y-84511607D01*
X142247916Y-84654464D01*
X142295535Y-84749702D01*
X142343154Y-84797321D01*
X142438392Y-84844940D01*
X142819345Y-84844940D01*
X141343154Y-84321130D02*
X141819345Y-84321130D01*
X141866964Y-84797321D01*
X141819345Y-84749702D01*
X141724107Y-84702083D01*
X141486011Y-84702083D01*
X141390773Y-84749702D01*
X141343154Y-84797321D01*
X141295535Y-84892559D01*
X141295535Y-85130654D01*
X141343154Y-85225892D01*
X141390773Y-85273511D01*
X141486011Y-85321130D01*
X141724107Y-85321130D01*
X141819345Y-85273511D01*
X141866964Y-85225892D01*
%TO.C,C2*%
X145422916Y-117130892D02*
X145470535Y-117178511D01*
X145613392Y-117226130D01*
X145708630Y-117226130D01*
X145851488Y-117178511D01*
X145946726Y-117083273D01*
X145994345Y-116988035D01*
X146041964Y-116797559D01*
X146041964Y-116654702D01*
X145994345Y-116464226D01*
X145946726Y-116368988D01*
X145851488Y-116273750D01*
X145708630Y-116226130D01*
X145613392Y-116226130D01*
X145470535Y-116273750D01*
X145422916Y-116321369D01*
X145041964Y-116321369D02*
X144994345Y-116273750D01*
X144899107Y-116226130D01*
X144661011Y-116226130D01*
X144565773Y-116273750D01*
X144518154Y-116321369D01*
X144470535Y-116416607D01*
X144470535Y-116511845D01*
X144518154Y-116654702D01*
X145089583Y-117226130D01*
X144470535Y-117226130D01*
%TO.C,FB1*%
X159837333Y-81589571D02*
X160170666Y-81589571D01*
X160170666Y-82113380D02*
X160170666Y-81113380D01*
X159694476Y-81113380D01*
X158980190Y-81589571D02*
X158837333Y-81637190D01*
X158789714Y-81684809D01*
X158742095Y-81780047D01*
X158742095Y-81922904D01*
X158789714Y-82018142D01*
X158837333Y-82065761D01*
X158932571Y-82113380D01*
X159313523Y-82113380D01*
X159313523Y-81113380D01*
X158980190Y-81113380D01*
X158884952Y-81161000D01*
X158837333Y-81208619D01*
X158789714Y-81303857D01*
X158789714Y-81399095D01*
X158837333Y-81494333D01*
X158884952Y-81541952D01*
X158980190Y-81589571D01*
X159313523Y-81589571D01*
X157789714Y-82113380D02*
X158361142Y-82113380D01*
X158075428Y-82113380D02*
X158075428Y-81113380D01*
X158170666Y-81256238D01*
X158265904Y-81351476D01*
X158361142Y-81399095D01*
%TO.C,C3*%
X134500892Y-110164583D02*
X134548511Y-110116964D01*
X134596130Y-109974107D01*
X134596130Y-109878869D01*
X134548511Y-109736011D01*
X134453273Y-109640773D01*
X134358035Y-109593154D01*
X134167559Y-109545535D01*
X134024702Y-109545535D01*
X133834226Y-109593154D01*
X133738988Y-109640773D01*
X133643750Y-109736011D01*
X133596130Y-109878869D01*
X133596130Y-109974107D01*
X133643750Y-110116964D01*
X133691369Y-110164583D01*
X133596130Y-110497916D02*
X133596130Y-111116964D01*
X133977083Y-110783630D01*
X133977083Y-110926488D01*
X134024702Y-111021726D01*
X134072321Y-111069345D01*
X134167559Y-111116964D01*
X134405654Y-111116964D01*
X134500892Y-111069345D01*
X134548511Y-111021726D01*
X134596130Y-110926488D01*
X134596130Y-110640773D01*
X134548511Y-110545535D01*
X134500892Y-110497916D01*
%TO.C,D4*%
X180125595Y-105100380D02*
X180125595Y-104100380D01*
X179887500Y-104100380D01*
X179744642Y-104148000D01*
X179649404Y-104243238D01*
X179601785Y-104338476D01*
X179554166Y-104528952D01*
X179554166Y-104671809D01*
X179601785Y-104862285D01*
X179649404Y-104957523D01*
X179744642Y-105052761D01*
X179887500Y-105100380D01*
X180125595Y-105100380D01*
X178697023Y-104433714D02*
X178697023Y-105100380D01*
X178935119Y-104052761D02*
X179173214Y-104767047D01*
X178554166Y-104767047D01*
%TO.C,SW5*%
X137064583Y-89304761D02*
X136921726Y-89352380D01*
X136683630Y-89352380D01*
X136588392Y-89304761D01*
X136540773Y-89257142D01*
X136493154Y-89161904D01*
X136493154Y-89066666D01*
X136540773Y-88971428D01*
X136588392Y-88923809D01*
X136683630Y-88876190D01*
X136874107Y-88828571D01*
X136969345Y-88780952D01*
X137016964Y-88733333D01*
X137064583Y-88638095D01*
X137064583Y-88542857D01*
X137016964Y-88447619D01*
X136969345Y-88400000D01*
X136874107Y-88352380D01*
X136636011Y-88352380D01*
X136493154Y-88400000D01*
X136159821Y-88352380D02*
X135921726Y-89352380D01*
X135731250Y-88638095D01*
X135540773Y-89352380D01*
X135302678Y-88352380D01*
X134445535Y-88352380D02*
X134921726Y-88352380D01*
X134969345Y-88828571D01*
X134921726Y-88780952D01*
X134826488Y-88733333D01*
X134588392Y-88733333D01*
X134493154Y-88780952D01*
X134445535Y-88828571D01*
X134397916Y-88923809D01*
X134397916Y-89161904D01*
X134445535Y-89257142D01*
X134493154Y-89304761D01*
X134588392Y-89352380D01*
X134826488Y-89352380D01*
X134921726Y-89304761D01*
X134969345Y-89257142D01*
%TO.C,R4*%
X151772916Y-85415380D02*
X152106250Y-84939190D01*
X152344345Y-85415380D02*
X152344345Y-84415380D01*
X151963392Y-84415380D01*
X151868154Y-84463000D01*
X151820535Y-84510619D01*
X151772916Y-84605857D01*
X151772916Y-84748714D01*
X151820535Y-84843952D01*
X151868154Y-84891571D01*
X151963392Y-84939190D01*
X152344345Y-84939190D01*
X150915773Y-84748714D02*
X150915773Y-85415380D01*
X151153869Y-84367761D02*
X151391964Y-85082047D01*
X150772916Y-85082047D01*
%TO.C,D3*%
X176950595Y-105100380D02*
X176950595Y-104100380D01*
X176712500Y-104100380D01*
X176569642Y-104148000D01*
X176474404Y-104243238D01*
X176426785Y-104338476D01*
X176379166Y-104528952D01*
X176379166Y-104671809D01*
X176426785Y-104862285D01*
X176474404Y-104957523D01*
X176569642Y-105052761D01*
X176712500Y-105100380D01*
X176950595Y-105100380D01*
X176045833Y-104100380D02*
X175426785Y-104100380D01*
X175760119Y-104481333D01*
X175617261Y-104481333D01*
X175522023Y-104528952D01*
X175474404Y-104576571D01*
X175426785Y-104671809D01*
X175426785Y-104909904D01*
X175474404Y-105005142D01*
X175522023Y-105052761D01*
X175617261Y-105100380D01*
X175902976Y-105100380D01*
X175998214Y-105052761D01*
X176045833Y-105005142D01*
%TO.C,Y1*%
X156808946Y-103661368D02*
X157145664Y-103324650D01*
X156202855Y-103796055D02*
X156808946Y-103661368D01*
X156674259Y-104267459D01*
X157987457Y-104166444D02*
X157583396Y-103762383D01*
X157785427Y-103964414D02*
X157078320Y-104671520D01*
X157111992Y-104503162D01*
X157111992Y-104368475D01*
X157078320Y-104267459D01*
%TO.C,F1*%
X143208333Y-93591071D02*
X143541666Y-93591071D01*
X143541666Y-94114880D02*
X143541666Y-93114880D01*
X143065476Y-93114880D01*
X142160714Y-94114880D02*
X142732142Y-94114880D01*
X142446428Y-94114880D02*
X142446428Y-93114880D01*
X142541666Y-93257738D01*
X142636904Y-93352976D01*
X142732142Y-93400595D01*
%TO.C,U2*%
X147605654Y-84383630D02*
X147605654Y-85193154D01*
X147558035Y-85288392D01*
X147510416Y-85336011D01*
X147415178Y-85383630D01*
X147224702Y-85383630D01*
X147129464Y-85336011D01*
X147081845Y-85288392D01*
X147034226Y-85193154D01*
X147034226Y-84383630D01*
X146605654Y-84478869D02*
X146558035Y-84431250D01*
X146462797Y-84383630D01*
X146224702Y-84383630D01*
X146129464Y-84431250D01*
X146081845Y-84478869D01*
X146034226Y-84574107D01*
X146034226Y-84669345D01*
X146081845Y-84812202D01*
X146653273Y-85383630D01*
X146034226Y-85383630D01*
%TO.C,C6*%
X155741666Y-113162142D02*
X155789285Y-113209761D01*
X155932142Y-113257380D01*
X156027380Y-113257380D01*
X156170238Y-113209761D01*
X156265476Y-113114523D01*
X156313095Y-113019285D01*
X156360714Y-112828809D01*
X156360714Y-112685952D01*
X156313095Y-112495476D01*
X156265476Y-112400238D01*
X156170238Y-112305000D01*
X156027380Y-112257380D01*
X155932142Y-112257380D01*
X155789285Y-112305000D01*
X155741666Y-112352619D01*
X154884523Y-112257380D02*
X155075000Y-112257380D01*
X155170238Y-112305000D01*
X155217857Y-112352619D01*
X155313095Y-112495476D01*
X155360714Y-112685952D01*
X155360714Y-113066904D01*
X155313095Y-113162142D01*
X155265476Y-113209761D01*
X155170238Y-113257380D01*
X154979761Y-113257380D01*
X154884523Y-113209761D01*
X154836904Y-113162142D01*
X154789285Y-113066904D01*
X154789285Y-112828809D01*
X154836904Y-112733571D01*
X154884523Y-112685952D01*
X154979761Y-112638333D01*
X155170238Y-112638333D01*
X155265476Y-112685952D01*
X155313095Y-112733571D01*
X155360714Y-112828809D01*
%TO.C,R3*%
X137485416Y-113958630D02*
X137818750Y-113482440D01*
X138056845Y-113958630D02*
X138056845Y-112958630D01*
X137675892Y-112958630D01*
X137580654Y-113006250D01*
X137533035Y-113053869D01*
X137485416Y-113149107D01*
X137485416Y-113291964D01*
X137533035Y-113387202D01*
X137580654Y-113434821D01*
X137675892Y-113482440D01*
X138056845Y-113482440D01*
X137152083Y-112958630D02*
X136533035Y-112958630D01*
X136866369Y-113339583D01*
X136723511Y-113339583D01*
X136628273Y-113387202D01*
X136580654Y-113434821D01*
X136533035Y-113530059D01*
X136533035Y-113768154D01*
X136580654Y-113863392D01*
X136628273Y-113911011D01*
X136723511Y-113958630D01*
X137009226Y-113958630D01*
X137104464Y-113911011D01*
X137152083Y-113863392D01*
%TO.C,R1*%
X145422916Y-94114880D02*
X145756250Y-93638690D01*
X145994345Y-94114880D02*
X145994345Y-93114880D01*
X145613392Y-93114880D01*
X145518154Y-93162500D01*
X145470535Y-93210119D01*
X145422916Y-93305357D01*
X145422916Y-93448214D01*
X145470535Y-93543452D01*
X145518154Y-93591071D01*
X145613392Y-93638690D01*
X145994345Y-93638690D01*
X144470535Y-94114880D02*
X145041964Y-94114880D01*
X144756250Y-94114880D02*
X144756250Y-93114880D01*
X144851488Y-93257738D01*
X144946726Y-93352976D01*
X145041964Y-93400595D01*
%TO.C,J1*%
X156821130Y-87047321D02*
X155821130Y-87047321D01*
X156535416Y-87380654D01*
X155821130Y-87713988D01*
X156821130Y-87713988D01*
X155821130Y-88380654D02*
X155821130Y-88571130D01*
X155868750Y-88666369D01*
X155963988Y-88761607D01*
X156154464Y-88809226D01*
X156487797Y-88809226D01*
X156678273Y-88761607D01*
X156773511Y-88666369D01*
X156821130Y-88571130D01*
X156821130Y-88380654D01*
X156773511Y-88285416D01*
X156678273Y-88190178D01*
X156487797Y-88142559D01*
X156154464Y-88142559D01*
X155963988Y-88190178D01*
X155868750Y-88285416D01*
X155821130Y-88380654D01*
X156773511Y-89190178D02*
X156821130Y-89333035D01*
X156821130Y-89571130D01*
X156773511Y-89666369D01*
X156725892Y-89713988D01*
X156630654Y-89761607D01*
X156535416Y-89761607D01*
X156440178Y-89713988D01*
X156392559Y-89666369D01*
X156344940Y-89571130D01*
X156297321Y-89380654D01*
X156249702Y-89285416D01*
X156202083Y-89237797D01*
X156106845Y-89190178D01*
X156011607Y-89190178D01*
X155916369Y-89237797D01*
X155868750Y-89285416D01*
X155821130Y-89380654D01*
X155821130Y-89618750D01*
X155868750Y-89761607D01*
X156821130Y-90190178D02*
X155821130Y-90190178D01*
X159321130Y-95547321D02*
X158321130Y-95547321D01*
X159035416Y-95880654D01*
X158321130Y-96213988D01*
X159321130Y-96213988D01*
X159321130Y-96690178D02*
X158321130Y-96690178D01*
X159273511Y-97118750D02*
X159321130Y-97261607D01*
X159321130Y-97499702D01*
X159273511Y-97594940D01*
X159225892Y-97642559D01*
X159130654Y-97690178D01*
X159035416Y-97690178D01*
X158940178Y-97642559D01*
X158892559Y-97594940D01*
X158844940Y-97499702D01*
X158797321Y-97309226D01*
X158749702Y-97213988D01*
X158702083Y-97166369D01*
X158606845Y-97118750D01*
X158511607Y-97118750D01*
X158416369Y-97166369D01*
X158368750Y-97213988D01*
X158321130Y-97309226D01*
X158321130Y-97547321D01*
X158368750Y-97690178D01*
X158321130Y-98309226D02*
X158321130Y-98499702D01*
X158368750Y-98594940D01*
X158463988Y-98690178D01*
X158654464Y-98737797D01*
X158987797Y-98737797D01*
X159178273Y-98690178D01*
X159273511Y-98594940D01*
X159321130Y-98499702D01*
X159321130Y-98309226D01*
X159273511Y-98213988D01*
X159178273Y-98118750D01*
X158987797Y-98071130D01*
X158654464Y-98071130D01*
X158463988Y-98118750D01*
X158368750Y-98213988D01*
X158321130Y-98309226D01*
X154321130Y-96571130D02*
X153844940Y-96237797D01*
X154321130Y-95999702D02*
X153321130Y-95999702D01*
X153321130Y-96380654D01*
X153368750Y-96475892D01*
X153416369Y-96523511D01*
X153511607Y-96571130D01*
X153654464Y-96571130D01*
X153749702Y-96523511D01*
X153797321Y-96475892D01*
X153844940Y-96380654D01*
X153844940Y-95999702D01*
X154273511Y-96952083D02*
X154321130Y-97094940D01*
X154321130Y-97333035D01*
X154273511Y-97428273D01*
X154225892Y-97475892D01*
X154130654Y-97523511D01*
X154035416Y-97523511D01*
X153940178Y-97475892D01*
X153892559Y-97428273D01*
X153844940Y-97333035D01*
X153797321Y-97142559D01*
X153749702Y-97047321D01*
X153702083Y-96999702D01*
X153606845Y-96952083D01*
X153511607Y-96952083D01*
X153416369Y-96999702D01*
X153368750Y-97047321D01*
X153321130Y-97142559D01*
X153321130Y-97380654D01*
X153368750Y-97523511D01*
X153321130Y-97809226D02*
X153321130Y-98380654D01*
X154321130Y-98094940D02*
X153321130Y-98094940D01*
X153368750Y-87856845D02*
X153321130Y-87761607D01*
X153321130Y-87618750D01*
X153368750Y-87475892D01*
X153463988Y-87380654D01*
X153559226Y-87333035D01*
X153749702Y-87285416D01*
X153892559Y-87285416D01*
X154083035Y-87333035D01*
X154178273Y-87380654D01*
X154273511Y-87475892D01*
X154321130Y-87618750D01*
X154321130Y-87713988D01*
X154273511Y-87856845D01*
X154225892Y-87904464D01*
X153892559Y-87904464D01*
X153892559Y-87713988D01*
X154321130Y-88333035D02*
X153321130Y-88333035D01*
X154321130Y-88904464D01*
X153321130Y-88904464D01*
X154321130Y-89380654D02*
X153321130Y-89380654D01*
X153321130Y-89618750D01*
X153368750Y-89761607D01*
X153463988Y-89856845D01*
X153559226Y-89904464D01*
X153749702Y-89952083D01*
X153892559Y-89952083D01*
X154083035Y-89904464D01*
X154178273Y-89856845D01*
X154273511Y-89761607D01*
X154321130Y-89618750D01*
X154321130Y-89380654D01*
X158321130Y-87535416D02*
X159321130Y-87868750D01*
X158321130Y-88202083D01*
X159225892Y-89106845D02*
X159273511Y-89059226D01*
X159321130Y-88916369D01*
X159321130Y-88821130D01*
X159273511Y-88678273D01*
X159178273Y-88583035D01*
X159083035Y-88535416D01*
X158892559Y-88487797D01*
X158749702Y-88487797D01*
X158559226Y-88535416D01*
X158463988Y-88583035D01*
X158368750Y-88678273D01*
X158321130Y-88821130D01*
X158321130Y-88916369D01*
X158368750Y-89059226D01*
X158416369Y-89106845D01*
X159225892Y-90106845D02*
X159273511Y-90059226D01*
X159321130Y-89916369D01*
X159321130Y-89821130D01*
X159273511Y-89678273D01*
X159178273Y-89583035D01*
X159083035Y-89535416D01*
X158892559Y-89487797D01*
X158749702Y-89487797D01*
X158559226Y-89535416D01*
X158463988Y-89583035D01*
X158368750Y-89678273D01*
X158321130Y-89821130D01*
X158321130Y-89916369D01*
X158368750Y-90059226D01*
X158416369Y-90106845D01*
X156773511Y-95583035D02*
X156821130Y-95725892D01*
X156821130Y-95963988D01*
X156773511Y-96059226D01*
X156725892Y-96106845D01*
X156630654Y-96154464D01*
X156535416Y-96154464D01*
X156440178Y-96106845D01*
X156392559Y-96059226D01*
X156344940Y-95963988D01*
X156297321Y-95773511D01*
X156249702Y-95678273D01*
X156202083Y-95630654D01*
X156106845Y-95583035D01*
X156011607Y-95583035D01*
X155916369Y-95630654D01*
X155868750Y-95678273D01*
X155821130Y-95773511D01*
X155821130Y-96011607D01*
X155868750Y-96154464D01*
X156725892Y-97154464D02*
X156773511Y-97106845D01*
X156821130Y-96963988D01*
X156821130Y-96868750D01*
X156773511Y-96725892D01*
X156678273Y-96630654D01*
X156583035Y-96583035D01*
X156392559Y-96535416D01*
X156249702Y-96535416D01*
X156059226Y-96583035D01*
X155963988Y-96630654D01*
X155868750Y-96725892D01*
X155821130Y-96868750D01*
X155821130Y-96963988D01*
X155868750Y-97106845D01*
X155916369Y-97154464D01*
X156821130Y-97583035D02*
X155821130Y-97583035D01*
X156821130Y-98154464D02*
X156249702Y-97725892D01*
X155821130Y-98154464D02*
X156392559Y-97583035D01*
%TO.C,C5*%
X138279166Y-94813392D02*
X138326785Y-94861011D01*
X138469642Y-94908630D01*
X138564880Y-94908630D01*
X138707738Y-94861011D01*
X138802976Y-94765773D01*
X138850595Y-94670535D01*
X138898214Y-94480059D01*
X138898214Y-94337202D01*
X138850595Y-94146726D01*
X138802976Y-94051488D01*
X138707738Y-93956250D01*
X138564880Y-93908630D01*
X138469642Y-93908630D01*
X138326785Y-93956250D01*
X138279166Y-94003869D01*
X137374404Y-93908630D02*
X137850595Y-93908630D01*
X137898214Y-94384821D01*
X137850595Y-94337202D01*
X137755357Y-94289583D01*
X137517261Y-94289583D01*
X137422023Y-94337202D01*
X137374404Y-94384821D01*
X137326785Y-94480059D01*
X137326785Y-94718154D01*
X137374404Y-94813392D01*
X137422023Y-94861011D01*
X137517261Y-94908630D01*
X137755357Y-94908630D01*
X137850595Y-94861011D01*
X137898214Y-94813392D01*
%TO.C,D1*%
X176950595Y-86177380D02*
X176950595Y-85177380D01*
X176712500Y-85177380D01*
X176569642Y-85225000D01*
X176474404Y-85320238D01*
X176426785Y-85415476D01*
X176379166Y-85605952D01*
X176379166Y-85748809D01*
X176426785Y-85939285D01*
X176474404Y-86034523D01*
X176569642Y-86129761D01*
X176712500Y-86177380D01*
X176950595Y-86177380D01*
X175426785Y-86177380D02*
X175998214Y-86177380D01*
X175712500Y-86177380D02*
X175712500Y-85177380D01*
X175807738Y-85320238D01*
X175902976Y-85415476D01*
X175998214Y-85463095D01*
%TO.C,USB1*%
X148581845Y-78033630D02*
X148581845Y-78843154D01*
X148534226Y-78938392D01*
X148486607Y-78986011D01*
X148391369Y-79033630D01*
X148200892Y-79033630D01*
X148105654Y-78986011D01*
X148058035Y-78938392D01*
X148010416Y-78843154D01*
X148010416Y-78033630D01*
X147581845Y-78986011D02*
X147438988Y-79033630D01*
X147200892Y-79033630D01*
X147105654Y-78986011D01*
X147058035Y-78938392D01*
X147010416Y-78843154D01*
X147010416Y-78747916D01*
X147058035Y-78652678D01*
X147105654Y-78605059D01*
X147200892Y-78557440D01*
X147391369Y-78509821D01*
X147486607Y-78462202D01*
X147534226Y-78414583D01*
X147581845Y-78319345D01*
X147581845Y-78224107D01*
X147534226Y-78128869D01*
X147486607Y-78081250D01*
X147391369Y-78033630D01*
X147153273Y-78033630D01*
X147010416Y-78081250D01*
X146248511Y-78509821D02*
X146105654Y-78557440D01*
X146058035Y-78605059D01*
X146010416Y-78700297D01*
X146010416Y-78843154D01*
X146058035Y-78938392D01*
X146105654Y-78986011D01*
X146200892Y-79033630D01*
X146581845Y-79033630D01*
X146581845Y-78033630D01*
X146248511Y-78033630D01*
X146153273Y-78081250D01*
X146105654Y-78128869D01*
X146058035Y-78224107D01*
X146058035Y-78319345D01*
X146105654Y-78414583D01*
X146153273Y-78462202D01*
X146248511Y-78509821D01*
X146581845Y-78509821D01*
X145058035Y-79033630D02*
X145629464Y-79033630D01*
X145343750Y-79033630D02*
X145343750Y-78033630D01*
X145438988Y-78176488D01*
X145534226Y-78271726D01*
X145629464Y-78319345D01*
%TO.C,U1*%
X133289880Y-105600595D02*
X134099404Y-105600595D01*
X134194642Y-105648214D01*
X134242261Y-105695833D01*
X134289880Y-105791071D01*
X134289880Y-105981547D01*
X134242261Y-106076785D01*
X134194642Y-106124404D01*
X134099404Y-106172023D01*
X133289880Y-106172023D01*
X134289880Y-107172023D02*
X134289880Y-106600595D01*
X134289880Y-106886309D02*
X133289880Y-106886309D01*
X133432738Y-106791071D01*
X133527976Y-106695833D01*
X133575595Y-106600595D01*
%TO.C,D2*%
X180125595Y-86177380D02*
X180125595Y-85177380D01*
X179887500Y-85177380D01*
X179744642Y-85225000D01*
X179649404Y-85320238D01*
X179601785Y-85415476D01*
X179554166Y-85605952D01*
X179554166Y-85748809D01*
X179601785Y-85939285D01*
X179649404Y-86034523D01*
X179744642Y-86129761D01*
X179887500Y-86177380D01*
X180125595Y-86177380D01*
X179173214Y-85272619D02*
X179125595Y-85225000D01*
X179030357Y-85177380D01*
X178792261Y-85177380D01*
X178697023Y-85225000D01*
X178649404Y-85272619D01*
X178601785Y-85367857D01*
X178601785Y-85463095D01*
X178649404Y-85605952D01*
X179220833Y-86177380D01*
X178601785Y-86177380D01*
%TO.C,C1*%
X132722916Y-100369642D02*
X132770535Y-100417261D01*
X132913392Y-100464880D01*
X133008630Y-100464880D01*
X133151488Y-100417261D01*
X133246726Y-100322023D01*
X133294345Y-100226785D01*
X133341964Y-100036309D01*
X133341964Y-99893452D01*
X133294345Y-99702976D01*
X133246726Y-99607738D01*
X133151488Y-99512500D01*
X133008630Y-99464880D01*
X132913392Y-99464880D01*
X132770535Y-99512500D01*
X132722916Y-99560119D01*
X131770535Y-100464880D02*
X132341964Y-100464880D01*
X132056250Y-100464880D02*
X132056250Y-99464880D01*
X132151488Y-99607738D01*
X132246726Y-99702976D01*
X132341964Y-99750595D01*
%TO.C,C7*%
X155741666Y-100369642D02*
X155789285Y-100417261D01*
X155932142Y-100464880D01*
X156027380Y-100464880D01*
X156170238Y-100417261D01*
X156265476Y-100322023D01*
X156313095Y-100226785D01*
X156360714Y-100036309D01*
X156360714Y-99893452D01*
X156313095Y-99702976D01*
X156265476Y-99607738D01*
X156170238Y-99512500D01*
X156027380Y-99464880D01*
X155932142Y-99464880D01*
X155789285Y-99512500D01*
X155741666Y-99560119D01*
X155408333Y-99464880D02*
X154741666Y-99464880D01*
X155170238Y-100464880D01*
D11*
%TO.C,R2*%
X149166250Y-91054186D02*
X149166250Y-91508314D01*
X147696250Y-91054186D02*
X147696250Y-91508314D01*
%TO.C,C4*%
X150551248Y-100865000D02*
X151073752Y-100865000D01*
X150551248Y-102335000D02*
X151073752Y-102335000D01*
%TO.C,R6*%
X130116250Y-85158314D02*
X130116250Y-84704186D01*
X128646250Y-85158314D02*
X128646250Y-84704186D01*
%TO.C,C8*%
X147376248Y-94515000D02*
X147898752Y-94515000D01*
X147376248Y-95985000D02*
X147898752Y-95985000D01*
%TO.C,R5*%
X142308314Y-85783750D02*
X141854186Y-85783750D01*
X142308314Y-87253750D02*
X141854186Y-87253750D01*
%TO.C,C2*%
X144994998Y-114358750D02*
X145517502Y-114358750D01*
X144994998Y-115828750D02*
X145517502Y-115828750D01*
%TO.C,FB1*%
X155313748Y-82466250D02*
X155836252Y-82466250D01*
X155313748Y-81046250D02*
X155836252Y-81046250D01*
%TO.C,C3*%
X133291250Y-110592502D02*
X133291250Y-110069998D01*
X131821250Y-110592502D02*
X131821250Y-110069998D01*
%TO.C,D4*%
X178387500Y-99350000D02*
X178387500Y-103250000D01*
X178387500Y-99350000D02*
X180387500Y-99350000D01*
X180387500Y-99350000D02*
X180387500Y-103250000D01*
%TO.C,SW5*%
X136771250Y-86857500D02*
X134691250Y-86857500D01*
X133011250Y-85587500D02*
X133501250Y-86077500D01*
X133011250Y-82687500D02*
X133501250Y-82197500D01*
X138451250Y-85587500D02*
X137961250Y-86077500D01*
X138451250Y-82687500D02*
X137961250Y-82197500D01*
X136771250Y-81417500D02*
X134691250Y-81417500D01*
X138451250Y-82687500D02*
X138451250Y-85587500D01*
X133011250Y-82687500D02*
X133011250Y-85587500D01*
%TO.C,R4*%
X151379186Y-87253750D02*
X151833314Y-87253750D01*
X151379186Y-85783750D02*
X151833314Y-85783750D01*
%TO.C,D3*%
X177212500Y-99350000D02*
X177212500Y-103250000D01*
X175212500Y-99350000D02*
X177212500Y-99350000D01*
X175212500Y-99350000D02*
X175212500Y-103250000D01*
%TO.C,Y1*%
X158281429Y-106680698D02*
X155099448Y-109862679D01*
X155099448Y-109862679D02*
X151281071Y-106044302D01*
%TO.C,F1*%
X143785000Y-89885436D02*
X143785000Y-91089564D01*
X141965000Y-89885436D02*
X141965000Y-91089564D01*
D10*
%TO.C,U2*%
X147393750Y-85862500D02*
X146293750Y-85862500D01*
X146293750Y-88762500D02*
X147393750Y-88762500D01*
X147393750Y-85862500D02*
X147393750Y-88762500D01*
X146293750Y-85862500D02*
X146293750Y-88762500D01*
D11*
%TO.C,C6*%
X155313748Y-110390000D02*
X155836252Y-110390000D01*
X155313748Y-111860000D02*
X155836252Y-111860000D01*
%TO.C,R3*%
X137091686Y-114358750D02*
X137545814Y-114358750D01*
X137091686Y-115828750D02*
X137545814Y-115828750D01*
%TO.C,R1*%
X144521250Y-91054186D02*
X144521250Y-91508314D01*
X145991250Y-91054186D02*
X145991250Y-91508314D01*
D12*
%TO.C,J1*%
X155118750Y-90368750D02*
X152618750Y-90368750D01*
X155118750Y-95368750D02*
X155118750Y-90368750D01*
X152618750Y-95368750D02*
X155118750Y-95368750D01*
X152618750Y-90368750D02*
X152618750Y-95368750D01*
D11*
%TO.C,C5*%
X137851248Y-96778750D02*
X138373752Y-96778750D01*
X137851248Y-95308750D02*
X138373752Y-95308750D01*
%TO.C,D1*%
X175212500Y-80300000D02*
X175212500Y-84200000D01*
X177212500Y-80300000D02*
X177212500Y-84200000D01*
X175212500Y-80300000D02*
X177212500Y-80300000D01*
D10*
%TO.C,U1*%
X136112500Y-111537500D02*
X136787500Y-111537500D01*
X136112500Y-111537500D02*
X136112500Y-110862500D01*
X146462500Y-111537500D02*
X146462500Y-110862500D01*
X146462500Y-101187500D02*
X145787500Y-101187500D01*
X146462500Y-101187500D02*
X146462500Y-101862500D01*
X136112500Y-101187500D02*
X136112500Y-101862500D01*
X136112500Y-101187500D02*
X136687500Y-101187500D01*
X136687500Y-101187500D02*
X136687500Y-99912500D01*
X146462500Y-111537500D02*
X145787500Y-111537500D01*
D11*
%TO.C,D2*%
X180387500Y-80300000D02*
X180387500Y-84200000D01*
X178387500Y-80300000D02*
X180387500Y-80300000D01*
X178387500Y-80300000D02*
X178387500Y-84200000D01*
%TO.C,C1*%
X131821250Y-102132498D02*
X131821250Y-102655002D01*
X133291250Y-102132498D02*
X133291250Y-102655002D01*
%TO.C,C7*%
X155313748Y-102335000D02*
X155836252Y-102335000D01*
X155313748Y-100865000D02*
X155836252Y-100865000D01*
%TD*%
%LPC*%
D13*
%TO.C,SW1*%
X173355000Y-88900000D03*
X163195000Y-88900000D03*
D14*
X168275000Y-88900000D03*
D15*
X170815000Y-83820000D03*
X164465000Y-86360000D03*
%TD*%
D13*
%TO.C,SW4*%
X192405000Y-107950000D03*
X182245000Y-107950000D03*
D14*
X187325000Y-107950000D03*
D15*
X189865000Y-102870000D03*
X183515000Y-105410000D03*
%TD*%
D13*
%TO.C,SW2*%
X192405000Y-88900000D03*
X182245000Y-88900000D03*
D14*
X187325000Y-88900000D03*
D15*
X189865000Y-83820000D03*
X183515000Y-86360000D03*
%TD*%
D13*
%TO.C,SW3*%
X163195000Y-107950000D03*
X173355000Y-107950000D03*
D14*
X168275000Y-107950000D03*
D15*
X170815000Y-102870000D03*
X164465000Y-105410000D03*
%TD*%
D16*
%TO.C,R2*%
X148431250Y-90281250D03*
X148431250Y-92281250D03*
%TD*%
D17*
%TO.C,C4*%
X149775000Y-101600000D03*
X151850000Y-101600000D03*
%TD*%
D18*
%TO.C,R6*%
X129381250Y-85931250D03*
X129381250Y-83931250D03*
%TD*%
D17*
%TO.C,C8*%
X146600000Y-95250000D03*
X148675000Y-95250000D03*
%TD*%
D19*
%TO.C,R5*%
X143081250Y-86518750D03*
X141081250Y-86518750D03*
%TD*%
D17*
%TO.C,C2*%
X144218750Y-115093750D03*
X146293750Y-115093750D03*
%TD*%
D20*
%TO.C,FB1*%
X154550000Y-81756250D03*
X156600000Y-81756250D03*
%TD*%
D21*
%TO.C,C3*%
X132556250Y-111368750D03*
X132556250Y-109293750D03*
%TD*%
D22*
%TO.C,D4*%
X179387500Y-99950000D03*
X179387500Y-103250000D03*
%TD*%
D23*
%TO.C,SW5*%
X133881250Y-81037500D03*
X133881250Y-87237500D03*
X137581250Y-87237500D03*
X137581250Y-81037500D03*
%TD*%
D24*
%TO.C,R4*%
X150606250Y-86518750D03*
X152606250Y-86518750D03*
%TD*%
D22*
%TO.C,D3*%
X176212500Y-99950000D03*
X176212500Y-103250000D03*
%TD*%
D25*
%TO.C,Y1*%
X154993382Y-108200978D03*
X152942772Y-106150368D03*
X154569118Y-104524022D03*
X156619728Y-106574632D03*
%TD*%
D26*
%TO.C,F1*%
X142875000Y-89000000D03*
X142875000Y-91975000D03*
%TD*%
D27*
%TO.C,U2*%
X147843750Y-86562500D03*
D28*
X147843750Y-88262500D03*
X145843750Y-88262500D03*
X145843750Y-86362500D03*
%TD*%
D17*
%TO.C,C6*%
X154537500Y-111125000D03*
X156612500Y-111125000D03*
%TD*%
D24*
%TO.C,R3*%
X136318750Y-115093750D03*
X138318750Y-115093750D03*
%TD*%
D16*
%TO.C,R1*%
X145256250Y-90281250D03*
X145256250Y-92281250D03*
%TD*%
D13*
%TO.C,J1*%
X158908750Y-94138750D03*
X158908750Y-91598750D03*
X156368750Y-94138750D03*
X156368750Y-91598750D03*
X153828750Y-94138750D03*
D29*
X153828750Y-91598750D03*
%TD*%
D17*
%TO.C,C5*%
X137075000Y-96043750D03*
X139150000Y-96043750D03*
%TD*%
D22*
%TO.C,D1*%
X176212500Y-80900000D03*
X176212500Y-84200000D03*
%TD*%
D30*
%TO.C,USB1*%
X143953750Y-80246250D03*
X149733750Y-80246250D03*
D31*
X143618750Y-82191250D03*
X144393750Y-82191250D03*
D32*
X145093750Y-82191250D03*
X145593750Y-82191250D03*
X146093750Y-82191250D03*
X146593750Y-82191250D03*
X147093750Y-82191250D03*
X147593750Y-82191250D03*
X148093750Y-82191250D03*
X148593750Y-82191250D03*
D31*
X149293750Y-82191250D03*
X150068750Y-82191250D03*
%TD*%
D33*
%TO.C,U1*%
X137287500Y-100662500D03*
X138087500Y-100662500D03*
X138887500Y-100662500D03*
X139687500Y-100662500D03*
X140487500Y-100662500D03*
X141287500Y-100662500D03*
X142087500Y-100662500D03*
X142887500Y-100662500D03*
X143687500Y-100662500D03*
X144487500Y-100662500D03*
X145287500Y-100662500D03*
D34*
X146987500Y-102362500D03*
X146987500Y-103162500D03*
X146987500Y-103962500D03*
X146987500Y-104762500D03*
X146987500Y-105562500D03*
X146987500Y-106362500D03*
X146987500Y-107162500D03*
X146987500Y-107962500D03*
X146987500Y-108762500D03*
X146987500Y-109562500D03*
X146987500Y-110362500D03*
D33*
X145287500Y-112062500D03*
X144487500Y-112062500D03*
X143687500Y-112062500D03*
X142887500Y-112062500D03*
X142087500Y-112062500D03*
X141287500Y-112062500D03*
X140487500Y-112062500D03*
X139687500Y-112062500D03*
X138887500Y-112062500D03*
X138087500Y-112062500D03*
X137287500Y-112062500D03*
D34*
X135587500Y-110362500D03*
X135587500Y-109562500D03*
X135587500Y-108762500D03*
X135587500Y-107962500D03*
X135587500Y-107162500D03*
X135587500Y-106362500D03*
X135587500Y-105562500D03*
X135587500Y-104762500D03*
X135587500Y-103962500D03*
X135587500Y-103162500D03*
X135587500Y-102362500D03*
%TD*%
D22*
%TO.C,D2*%
X179387500Y-80900000D03*
X179387500Y-84200000D03*
%TD*%
D35*
%TO.C,C1*%
X132556250Y-101356250D03*
X132556250Y-103431250D03*
%TD*%
D17*
%TO.C,C7*%
X154537500Y-101600000D03*
X156612500Y-101600000D03*
%TD*%
M02*
